<svg xmlns="http://www.w3.org/2000/svg" width="16.165" height="16.82" viewBox="0 0 16.165 16.82"><path d="M16.488,11.23a6.94,6.94,0,0,0,.052-.82,5.244,5.244,0,0,0-.062-.82L18.234,8.2a.438.438,0,0,0,.1-.536L16.675,4.754a.42.42,0,0,0-.509-.189L14.1,5.406a6.072,6.072,0,0,0-1.4-.82l-.312-2.229A.416.416,0,0,0,11.967,2H8.642a.406.406,0,0,0-.405.357L7.925,4.586a6.234,6.234,0,0,0-1.4.82L4.454,4.565a.409.409,0,0,0-.509.189L2.282,7.666a.41.41,0,0,0,.1.536L4.142,9.59a5.011,5.011,0,0,0-.01,1.64L2.376,12.618a.438.438,0,0,0-.1.536l1.663,2.912a.42.42,0,0,0,.509.189l2.068-.841a6.072,6.072,0,0,0,1.4.82l.312,2.229a.424.424,0,0,0,.416.357h3.325a.4.4,0,0,0,.405-.357l.312-2.229a6.234,6.234,0,0,0,1.4-.82l2.068.841a.409.409,0,0,0,.509-.189l1.663-2.912a.411.411,0,0,0-.1-.536L16.488,11.23ZM10.3,13.564a3.154,3.154,0,1,1,3.118-3.154A3.145,3.145,0,0,1,10.3,13.564Z" transform="translate(-2.222 -2)" fill="#515151"/></svg>